<?xml version="1.0" encoding="UTF-8" standalone="no"?>
<svg
   xmlns:dc="http://purl.org/dc/elements/1.1/"
   xmlns:cc="http://creativecommons.org/ns#"
   xmlns:rdf="http://www.w3.org/1999/02/22-rdf-syntax-ns#"
   xmlns:svg="http://www.w3.org/2000/svg"
   xmlns="http://www.w3.org/2000/svg"
   width="112.30145mm"
   height="16.967167mm"
   viewBox="0 0 112.30145 16.967167"
   version="1.1"
   id="SVGRoot">
  <title
     id="title1511">mysocialcontract</title>
  <defs
     id="defs2">
    <rect
       x="10.476965"
       y="68.848633"
       width="255.18895"
       height="46.023815"
       id="rect1427" />
  </defs>
  <metadata
     id="metadata5">
    <rdf:RDF>
      <cc:Work
         rdf:about="">
        <dc:format>image/svg+xml</dc:format>
        <dc:type
           rdf:resource="http://purl.org/dc/dcmitype/StillImage" />
        <dc:title>mysocialcontract</dc:title>
      </cc:Work>
    </rdf:RDF>
  </metadata>
  <g
     id="layer1"
     transform="translate(-92.235133,-151.40229)">
    <g
       aria-label="Mysocialcontract"
       transform="translate(81.944837,80.448127)"
       id="text1425"
       style="font-size:16.9333px;line-height:1.25;font-family:BlackChancery;-inkscape-font-specification:BlackChancery;white-space:pre;shape-inside:url(#rect1427)">
      <path
         d="m 17.351482,70.971092 q 1.168398,0 1.828797,0.863598 0.660398,0.846665 0.982131,2.04893 0.321733,1.202264 0.592666,2.201329 0.287866,0.999064 0.524932,1.659463 0.321733,-1.083731 0.660399,-2.184396 0.694265,-1.913463 1.761063,-3.251193 1.083731,-1.337731 2.675461,-1.337731 0.745065,0 1.185331,0.287866 0.457199,0.287866 0.677332,0.761999 -0.338666,-0.372533 -0.778932,-0.541866 -0.440265,-0.186266 -0.931331,-0.186266 -1.049865,0 -1.64253,0.982131 -0.592666,0.982132 -0.592666,2.150529 0,1.439331 0.812799,3.894659 0.829731,2.455329 2.353728,4.639724 1.540931,2.184396 3.58986,3.014128 h -1.574797 q -2.980261,0 -4.453458,-2.421462 -1.473197,-2.421462 -1.964263,-5.672656 -0.118533,-1.422397 -0.237066,-2.844794 -0.457199,0.897465 -1.083731,3.098794 -0.626532,2.201329 -0.897465,3.43746 -0.372532,-0.643466 -0.829732,-1.811863 -0.440265,-1.185331 -1.015998,-2.844795 -0.558798,-1.676396 -0.795865,-2.353728 0,1.473197 -0.643465,4.267191 -0.643465,2.777061 -1.862663,4.97839 -1.219198,2.201329 -2.878661,2.201329 -1.032931,0 -1.777997,-0.965198 -0.745065,-0.965198 -0.745065,-2.285995 0.440266,0.541865 1.134531,0.897465 0.711199,0.372532 1.523997,0.372532 1.777997,0 2.844795,-1.862663 1.083731,-1.862663 1.523997,-4.148658 0.440266,-2.285996 0.440266,-3.58986 0,-1.64253 -0.338666,-2.302929 -0.338666,-0.660398 -1.490131,-0.660398 -2.082796,0 -3.301993,1.066798 -1.219198,1.066798 -1.219198,2.895594 0,1.354664 0.524932,2.370662 0.575733,0.795865 1.168398,1.574797 0,0.220133 -0.372533,0.389466 -0.355599,0.169333 -0.609598,0.169333 -0.524933,-0.423333 -1.049865,-1.185331 -0.507999,-0.761999 -0.507999,-2.489195 0,-2.607729 1.761063,-3.945459 1.777997,-1.337731 5.02919,-1.337731 z"
         style="font-size:16.9333px"
         id="path1478" />
      <path
         d="m 33.370367,74.628685 q 0.254,0 0.812799,0.711198 0.558798,0.711199 0.558798,1.523997 0,0.4064 -1.219197,2.573862 -1.219198,2.167462 -1.828797,3.403593 -0.609598,1.253065 -0.609598,2.252129 0,0.829732 0.474132,1.490131 0.491066,0.660398 1.286931,0.660398 0.660399,0 1.015998,-0.355599 0.372532,-0.338666 0.745065,-1.219198 0,1.303865 -0.778932,1.777997 -0.761998,0.474132 -1.777996,0.474132 -1.320798,0 -1.930396,-0.440265 -0.609599,-0.423333 -0.609599,-1.540931 0,-0.897465 0.524932,-1.761063 0.541866,-0.846665 1.507064,-2.116662 -0.3048,-0.677332 -0.846665,-1.862663 -0.524933,-1.185331 -1.168398,-2.353729 -0.643465,-1.168398 -0.863598,-1.219198 -0.2032,-0.0508 -0.372533,-0.0508 -0.389466,0 -0.812798,0.186267 -0.423333,0.169333 -0.812799,0.406399 0.491066,-0.761999 1.202265,-1.507064 0.728131,-0.761998 1.303864,-0.761998 0.778931,0 1.896529,2.404528 1.134531,2.387596 1.557864,2.963328 0.270933,-0.491066 0.524932,-1.083731 0.254,-0.609599 0.254,-1.236131 0,-0.694266 -0.3556,-1.168398 -0.338666,-0.491066 -1.015998,-0.795865 0.254,-0.457199 0.558799,-0.897465 0.3048,-0.457199 0.778932,-0.457199 z"
         style="font-size:16.9333px"
         id="path1480" />
      <path
         d="m 40.042071,74.865751 q -0.287866,0.457199 -0.423332,0.914398 -0.135467,0.457199 -0.237066,0.829732 -0.541866,-0.592666 -1.015998,-0.829732 -0.474133,-0.237066 -1.100665,-0.237066 -0.626532,0 -0.880532,0.220133 -0.253999,0.220133 -0.253999,0.592665 0,0.423333 1.269997,0.965199 1.269998,0.524932 1.99813,1.049864 0.745065,0.524932 0.745065,1.676397 0,1.354664 -0.846665,1.79493 -0.829732,0.440265 -2.116662,0.440265 -1.303865,0 -1.659464,-0.474132 -0.355599,-0.491066 -0.355599,-2.370662 0.321733,0.880532 1.049864,1.59173 0.728132,0.711199 1.74413,0.711199 1.168398,0 1.168398,-1.049865 0,-0.507999 -1.236131,-1.066798 -1.236131,-0.558799 -1.930396,-1.083731 -0.694265,-0.524932 -0.694265,-1.761063 0,-1.066798 0.660398,-1.473197 0.660399,-0.406399 1.761064,-0.406399 0.287866,0 0.795865,0.101599 0.507999,0.1016 0.592665,0.1016 0.270933,0 0.457199,-0.03387 0.186267,-0.0508 0.507999,-0.2032 z"
         style="font-size:16.9333px"
         id="path1482" />
      <path
         d="m 44.597128,74.916551 q 1.38853,0 2.167462,0.999065 0.795865,0.999064 0.795865,2.472261 0,1.557864 -1.151464,2.760128 -1.151464,1.202265 -2.573862,1.202265 -1.33773,0 -2.133595,-0.999065 -0.795866,-1.015998 -0.795866,-2.539995 0,-1.523997 1.117598,-2.709328 1.117598,-1.185331 2.573862,-1.185331 z m -2.201329,2.895594 q 0,1.388531 0.355599,2.556929 0.372533,1.168397 1.64253,1.168397 0.728132,0 1.185331,-0.609599 0.457199,-0.609598 0.457199,-1.557863 0,-1.371597 -0.457199,-2.506129 -0.457199,-1.151464 -1.557863,-1.151464 -0.745066,0 -1.185331,0.592666 -0.440266,0.592665 -0.440266,1.507063 z"
         style="font-size:16.9333px"
         id="path1484" />
      <path
         d="m 52.386427,74.950418 q 0.660399,0 1.388531,0.440265 0.728132,0.423333 0.728132,1.049865 0,0.169333 -0.440266,0.626532 -0.440266,0.457199 -0.761998,0.643465 -0.1524,-0.761998 -0.778932,-1.23613 -0.626532,-0.474133 -1.286931,-0.474133 -0.626532,0 -1.032931,0.694265 -0.389466,0.677332 -0.389466,1.591731 0,1.625596 0.745065,2.302928 0.761998,0.660399 1.727197,0.660399 0.406399,0 0.880531,-0.220133 0.474133,-0.237066 0.982132,-0.575732 -0.677332,1.032931 -1.354664,1.456264 -0.660399,0.406399 -1.84573,0.406399 -1.64253,0 -2.099729,-0.880532 -0.457199,-0.880531 -0.457199,-2.167462 0,-1.947329 1.117597,-3.13266 1.117598,-1.185331 2.878661,-1.185331 z"
         style="font-size:16.9333px"
         id="path1486" />
      <path
         d="m 57.043068,71.225092 q 0.423332,0 0.711199,0.304799 0.287866,0.304799 0.287866,0.829732 0,0.592665 -0.507999,0.931331 -0.507999,0.338666 -0.914399,0.338666 -0.355599,0 -0.541865,-0.372532 -0.169333,-0.389466 -0.169333,-0.897465 0,-0.643466 0.304799,-0.880532 0.3048,-0.253999 0.829732,-0.253999 z m -0.220133,3.691459 q 0.524932,0 0.728132,0.406399 0.220133,0.406399 0.220133,0.965198 v 4.758258 q 0.06773,0.474132 0.355599,0.474132 0.2032,0 0.474133,-0.220133 0.270932,-0.220133 0.355599,-0.287866 -0.406399,0.694265 -0.829732,1.015998 -0.406399,0.321733 -0.931331,0.321733 -0.440266,0 -0.711199,-0.372533 -0.270933,-0.372533 -0.270933,-0.880532 v -4.995323 q 0,-0.321733 -0.237066,-0.321733 -0.321733,0 -0.999065,0.575732 0.08467,-0.321732 0.694266,-0.880531 0.609598,-0.558799 1.151464,-0.558799 z"
         style="font-size:16.9333px"
         id="path1488" />
      <path
         d="m 65.662113,75.001217 v 6.265321 q 0.01693,0.220133 0.220132,0.220133 0.1524,0 0.3556,-0.101599 0.220133,-0.118534 0.694265,-0.389466 -0.220133,0.457199 -0.745065,0.897465 -0.507999,0.440265 -0.982132,0.440265 -0.270932,0 -0.711198,-0.372532 -0.423333,-0.372533 -0.423333,-0.999065 v -0.914398 q -1.032931,1.032931 -1.74413,1.659463 -0.711198,0.626532 -1.23613,0.626532 -0.575733,0 -1.032932,-0.677332 -0.440266,-0.677332 -0.440266,-1.811863 0,-2.302929 1.269998,-3.572926 1.269997,-1.269998 3.301993,-1.269998 z m -4.419592,3.555993 q 0,0.829732 0.270933,1.219198 0.270933,0.389466 0.745065,0.389466 0.406399,0 0.863599,-0.237066 0.474132,-0.254 0.948264,-0.677332 V 75.47535 q -1.269997,0 -2.048929,0.948265 -0.778932,0.931331 -0.778932,2.133595 z"
         style="font-size:16.9333px"
         id="path1490" />
      <path
         d="m 67.338506,73.88362 q 0,-1.219198 0.660398,-2.065863 0.677332,-0.863598 1.74413,-0.863598 h 1.523997 q -0.541865,0.982131 -1.405464,1.049864 -0.863598,0.0508 -0.863598,0.3048 v 8.619049 q 0,0.3048 0.237066,0.3048 0.2032,0 0.541866,-0.220133 0.355599,-0.237066 0.778932,-0.609599 -0.423333,0.778932 -1.083731,1.371597 -0.643466,0.575733 -1.168398,0.575733 -0.507999,0 -0.745065,-0.372533 -0.220133,-0.389466 -0.220133,-1.049865 z"
         style="font-size:16.9333px"
         id="path1492" />
      <path
         d="m 75.026213,74.950418 q 0.660399,0 1.388531,0.440265 0.728132,0.423333 0.728132,1.049865 0,0.169333 -0.440266,0.626532 -0.440266,0.457199 -0.761999,0.643465 -0.152399,-0.761998 -0.778932,-1.23613 -0.626532,-0.474133 -1.28693,-0.474133 -0.626532,0 -1.032932,0.694265 -0.389466,0.677332 -0.389466,1.591731 0,1.625596 0.745066,2.302928 0.761998,0.660399 1.727196,0.660399 0.406399,0 0.880532,-0.220133 0.474132,-0.237066 0.982131,-0.575732 -0.677332,1.032931 -1.354664,1.456264 -0.660398,0.406399 -1.845729,0.406399 -1.642531,0 -2.09973,-0.880532 -0.457199,-0.880531 -0.457199,-2.167462 0,-1.947329 1.117598,-3.13266 1.117598,-1.185331 2.878661,-1.185331 z"
         style="font-size:16.9333px"
         id="path1494" />
      <path
         d="m 81.528583,74.916551 q 1.388531,0 2.167463,0.999065 0.795865,0.999064 0.795865,2.472261 0,1.557864 -1.151464,2.760128 -1.151465,1.202265 -2.573862,1.202265 -1.337731,0 -2.133596,-0.999065 -0.795865,-1.015998 -0.795865,-2.539995 0,-1.523997 1.117598,-2.709328 1.117598,-1.185331 2.573861,-1.185331 z m -2.201329,2.895594 q 0,1.388531 0.3556,2.556929 0.372532,1.168397 1.64253,1.168397 0.728132,0 1.185331,-0.609599 0.457199,-0.609598 0.457199,-1.557863 0,-1.371597 -0.457199,-2.506129 -0.457199,-1.151464 -1.557864,-1.151464 -0.745065,0 -1.185331,0.592666 -0.440266,0.592665 -0.440266,1.507063 z"
         style="font-size:16.9333px"
         id="path1496" />
      <path
         d="m 91.265211,81.181872 q 0,0.372533 0.253999,0.372533 0.338666,0 0.931332,-0.558799 -0.338666,0.643465 -0.863599,0.999064 -0.507999,0.3556 -0.914398,0.3556 -0.457199,0 -0.745065,-0.270933 -0.270933,-0.287866 -0.270933,-0.863598 l 0.01693,-3.809993 q 0,-0.389466 -0.08467,-0.609599 -0.08467,-0.237066 -0.474133,-0.237066 -0.423332,0 -1.117597,0.897465 -0.694266,0.880532 -0.694266,1.032931 v 2.878661 q -0.08467,0.3556 -0.592665,0.677332 -0.491066,0.3048 -0.982132,0.3048 v -5.791189 q 0,-0.270933 -0.203199,-0.270933 -0.254,0 -0.965198,0.457199 0.643465,-0.812798 1.168397,-1.269997 0.541866,-0.474133 0.846665,-0.474133 0.474133,0 0.592666,0.524933 0.135466,0.507999 0.135466,1.59173 v 0.626532 q 0.660399,-1.032931 1.388531,-1.879596 0.745065,-0.863599 1.557864,-0.863599 0.626532,0 0.829731,0.423333 0.2032,0.423332 0.2032,1.269997 0,0.254 -0.01693,0.507999 0,0.237067 0,0.491066 0,0.491066 -0.01693,1.049865 0,0.541865 0,1.320797 0,0.440266 0,0.778932 0,0.321733 0.01693,0.338666 z"
         style="font-size:16.9333px"
         id="path1498" />
      <path
         d="m 95.02439,74.984284 h 1.38853 q -0.220133,0.491066 -0.626532,0.609599 -0.389466,0.1016 -0.761998,0.118533 v 5.13079 q 0,0.372533 0.287866,0.372533 0.237066,0 0.592665,-0.220133 0.372533,-0.237067 0.880532,-0.711199 -0.474132,0.897465 -1.117598,1.49013 -0.643465,0.575733 -1.303864,0.575733 -0.507999,0 -0.711199,-0.4064 -0.186266,-0.423332 -0.186266,-1.49013 v -4.741324 h -0.999065 q 0.0508,-0.389466 0.897465,-0.863598 0.863599,-0.491066 1.659464,-2.523062 z"
         style="font-size:16.9333px"
         id="path1500" />
      <path
         d="m 98.834366,74.916551 q 0.474133,0 0.592666,0.457199 0.135466,0.440266 0.135466,1.557864 v 0.761998 q 0.643462,-0.897465 1.303862,-1.79493 0.82973,-0.982131 1.64253,-0.982131 0.4572,0 0.7112,0.338666 0.27093,0.321733 0.27093,0.795865 0,0.575732 -0.64346,1.286931 -0.64347,0.694265 -1.27,1.303864 0.0847,-0.169333 0.16933,-0.558799 0.1016,-0.406399 0.1016,-0.711199 0,-0.372532 -0.13546,-0.609598 -0.11854,-0.237067 -0.42334,-0.237067 -0.32173,0 -0.81279,0.592666 -0.47414,0.575732 -0.914402,1.168398 v 3.166527 q -0.287866,0.270933 -0.677332,0.558799 -0.389466,0.270932 -0.897465,0.338666 v -5.604923 q 0,-0.355599 -0.338666,-0.355599 -0.152399,0 -0.355599,0.118533 -0.203199,0.1016 -0.457199,0.355599 0.270933,-0.558798 0.965198,-1.253064 0.694265,-0.694265 1.032931,-0.694265 z"
         style="font-size:16.9333px"
         id="path1502" />
      <path
         d="m 110.36592,75.001217 v 6.265321 q 0.0169,0.220133 0.22013,0.220133 0.1524,0 0.3556,-0.101599 0.22013,-0.118534 0.69426,-0.389466 -0.22013,0.457199 -0.74506,0.897465 -0.508,0.440265 -0.98213,0.440265 -0.27094,0 -0.7112,-0.372532 -0.42333,-0.372533 -0.42333,-0.999065 v -0.914398 q -1.03293,1.032931 -1.74413,1.659463 -0.7112,0.626532 -1.23613,0.626532 -0.57574,0 -1.03294,-0.677332 -0.44026,-0.677332 -0.44026,-1.811863 0,-2.302929 1.27,-3.572926 1.26999,-1.269998 3.30199,-1.269998 z m -4.41959,3.555993 q 0,0.829732 0.27093,1.219198 0.27093,0.389466 0.74506,0.389466 0.4064,0 0.8636,-0.237066 0.47413,-0.254 0.94827,-0.677332 V 75.47535 q -1.27,0 -2.04893,0.948265 -0.77893,0.931331 -0.77893,2.133595 z"
         style="font-size:16.9333px"
         id="path1504" />
      <path
         d="m 116.0047,74.950418 q 0.6604,0 1.38853,0.440265 0.72813,0.423333 0.72813,1.049865 0,0.169333 -0.44026,0.626532 -0.44027,0.457199 -0.762,0.643465 -0.1524,-0.761998 -0.77893,-1.23613 -0.62653,-0.474133 -1.28693,-0.474133 -0.62653,0 -1.03293,0.694265 -0.38947,0.677332 -0.38947,1.591731 0,1.625596 0.74507,2.302928 0.76199,0.660399 1.72719,0.660399 0.4064,0 0.88053,-0.220133 0.47414,-0.237066 0.98214,-0.575732 -0.67734,1.032931 -1.35467,1.456264 -0.6604,0.406399 -1.84573,0.406399 -1.64253,0 -2.09973,-0.880532 -0.4572,-0.880531 -0.4572,-2.167462 0,-1.947329 1.1176,-3.13266 1.1176,-1.185331 2.87866,-1.185331 z"
         style="font-size:16.9333px"
         id="path1506" />
      <path
         d="m 120.83068,74.984284 h 1.38853 q -0.22013,0.491066 -0.62653,0.609599 -0.38947,0.1016 -0.762,0.118533 v 5.13079 q 0,0.372533 0.28787,0.372533 0.23706,0 0.59266,-0.220133 0.37253,-0.237067 0.88053,-0.711199 -0.47413,0.897465 -1.1176,1.49013 -0.64346,0.575733 -1.30386,0.575733 -0.508,0 -0.7112,-0.4064 -0.18626,-0.423332 -0.18626,-1.49013 v -4.741324 h -0.99907 q 0.0508,-0.389466 0.89747,-0.863598 0.86359,-0.491066 1.65946,-2.523062 z"
         style="font-size:16.9333px"
         id="path1508" />
    </g>
  </g>
</svg>
