<?xml version="1.0" encoding="UTF-8" standalone="no"?>
<svg
   xmlns:dc="http://purl.org/dc/elements/1.1/"
   xmlns:cc="http://creativecommons.org/ns#"
   xmlns:rdf="http://www.w3.org/1999/02/22-rdf-syntax-ns#"
   xmlns:svg="http://www.w3.org/2000/svg"
   xmlns="http://www.w3.org/2000/svg"
   xmlns:sodipodi="http://sodipodi.sourceforge.net/DTD/sodipodi-0.dtd"
   xmlns:inkscape="http://www.inkscape.org/namespaces/inkscape"
   width="512"
   height="512"
   viewBox="0 0 135.46666 135.46668"
   version="1.1"
   id="svg8"
   inkscape:version="1.0.1 (3bc2e813f5, 2020-09-07)"
   sodipodi:docname="mysocialcontract.svg">
  <defs
     id="defs2">
    <inkscape:path-effect
       effect="bspline"
       id="path-effect869"
       is_visible="true"
       lpeversion="1"
       weight="33.333333"
       steps="2"
       helper_size="0"
       apply_no_weight="true"
       apply_with_weight="true"
       only_selected="false" />
    <inkscape:path-effect
       effect="bspline"
       id="path-effect865"
       is_visible="true"
       lpeversion="1"
       weight="33.333333"
       steps="2"
       helper_size="0"
       apply_no_weight="true"
       apply_with_weight="true"
       only_selected="false" />
    <inkscape:path-effect
       effect="bspline"
       id="path-effect861"
       is_visible="true"
       lpeversion="1"
       weight="33.333333"
       steps="2"
       helper_size="0"
       apply_no_weight="true"
       apply_with_weight="true"
       only_selected="false" />
    <style
       id="style900">.cls-1{fill:#343434;}.cls-2{fill:#8c8c8c;}.cls-3{fill:#3c3c3b;}.cls-4{fill:#141414;}.cls-5{fill:#393939;}</style>
  </defs>
  <sodipodi:namedview
     id="base"
     pagecolor="#ffffff"
     bordercolor="#666666"
     borderopacity="1.0"
     inkscape:pageopacity="1"
     inkscape:pageshadow="2"
     inkscape:zoom="1.4142136"
     inkscape:cx="88.913065"
     inkscape:cy="235.55539"
     inkscape:document-units="px"
     inkscape:current-layer="layer1"
     inkscape:document-rotation="0"
     showgrid="false"
     units="px"
     inkscape:window-width="1920"
     inkscape:window-height="1017"
     inkscape:window-x="-8"
     inkscape:window-y="-8"
     inkscape:window-maximized="1"
     fit-margin-top="0"
     fit-margin-left="0"
     fit-margin-right="0"
     fit-margin-bottom="0" />
  <metadata
     id="metadata5">
    <rdf:RDF>
      <cc:Work
         rdf:about="">
        <dc:format>image/svg+xml</dc:format>
        <dc:type
           rdf:resource="http://purl.org/dc/dcmitype/StillImage" />
        <dc:title></dc:title>
      </cc:Work>
    </rdf:RDF>
  </metadata>
  <g
     inkscape:label="Layer 1"
     inkscape:groupmode="layer"
     id="layer1"
     transform="translate(-93.333814,-142.80891)">
    <g
       style="fill:#960000;fill-opacity:1"
       id="g857"
       transform="matrix(1.0583333,0,0,1.0583333,115.99894,140.66479)" />
    <path
       style="fill:none;fill-opacity:1;stroke:#000000;stroke-width:10.2974;stroke-linecap:butt;stroke-linejoin:miter;stroke-miterlimit:4;stroke-dasharray:none;stroke-opacity:1"
       d="m 180.65174,272.39248 c -1.85985,-1.49717 -4.57018,-3.08462 -5.91212,-5.31547 -1.29889,-2.51626 -1.79624,-4.94623 -3.34773,-8.95117 -1.49711,-4.32385 -3.01214,-8.31086 -3.62474,-10.86351 -0.99131,-2.49941 -1.83878,-2.55258 -12.54973,-2.60704 -10.71101,-0.0514 -30.90463,-0.16331 -41.78697,-0.16266 -10.88235,3.8e-4 -12.45061,0.10994 -13.477717,1.19241 -1.027118,1.08228 -1.513584,3.13716 -1.462206,5.79576 0.0517,2.65867 0.639233,5.91304 1.827113,9.04672 1.18784,3.13368 2.97265,6.13974 4.93716,8.14407 1.96451,2.00434 4.10708,3.0067 15.43204,3.58266 11.32496,0.57608 31.83217,0.72641 45.63163,0.75148 4.01798,0.006 7.46721,0.004 10.43963,-0.0514 7.23606,-0.14209 11.64617,-0.61209 14.55642,-2.05037 4.10567,-2.02935 5.22799,-5.98877 5.48322,-22.02707 0.25522,-16.03824 -0.35666,-44.14924 -0.72869,-60.66564 -0.37171,-16.51646 -0.50325,-21.42167 0.0458,-25.34663 0.54971,-3.92497 1.78204,-6.86692 3.15337,-9.2353 1.37133,-2.36831 2.88545,-4.17005 6.91776,-5.10349 4.03231,-0.93344 10.56521,-0.99638 14.07406,3.40449 3.50884,4.40094 3.98833,13.26371 3.19668,18.4585 -0.79171,5.1948 -2.85443,6.72245 -5.3431,7.74281 -2.48868,1.0203 -5.40403,1.53325 -8.27744,1.42678 -2.87341,-0.10609 -5.70493,-0.83295 -8.03236,-1.42896 -2.32743,-0.59602 -4.1505,-1.06158 -5.9758,-1.52772"
       id="path859"
       sodipodi:nodetypes="ccccccccccccscccccccccccc" />
    <path
       style="fill:none;fill-opacity:1;stroke:#000000;stroke-width:10.2974;stroke-linecap:butt;stroke-linejoin:miter;stroke-miterlimit:4;stroke-dasharray:none;stroke-opacity:1"
       d="m 120.32899,245.34775 c 0,-27.6419 0,-55.28548 0.21629,-70.31242 0.21635,-15.02694 0.64918,-17.43685 1.7249,-19.52856 1.07574,-2.09165 2.79393,-3.8635 4.74912,-5.01593 1.9552,-1.15242 4.14569,-1.68472 18.25709,-2.00343 14.11143,-0.31891 40.14204,-0.42435 66.17148,-0.5298"
       id="path863"
       sodipodi:nodetypes="cccccc" />
    <g
       id="g930"
       transform="matrix(0.08657373,0,0,0.08505717,144.07659,183.5916)">
      <path
         id="polygon906"
         style="fill:#7986cb;fill-opacity:1"
         d="m 152.25,11.56 v 335.31 l 3.4,3.39 155.65,-92 L 155.65,0 Z"
         class="cls-1" />
      <path
         id="polygon908"
         style="fill:#9fa8da;fill-opacity:1"
         d="M 155.65,187.51 V 0 L 0,258.26 155.65,350.27 Z"
         class="cls-2" />
      <path
         id="polygon910"
         style="fill:#7986cb;fill-opacity:1"
         d="m 153.73,382.07 v 119.45 l 1.92,5.59 155.74,-219.33 -155.74,91.96 z"
         class="cls-3" />
      <path
         id="polygon912"
         style="fill:#9fa8da;fill-opacity:1"
         d="M 0,287.78 155.65,507.11 V 379.73 Z"
         class="cls-2" />
      <path
         id="polygon914"
         style="fill:#5c6bc0;fill-opacity:1"
         d="m 155.65,187.51 v 162.75 l 155.65,-92 z"
         class="cls-4" />
      <path
         id="polygon916"
         style="fill:#7986cb;fill-opacity:1"
         d="M 155.65,187.51 0,258.26 l 155.65,92 z"
         class="cls-5" />
    </g>
  </g>
</svg>
