<?xml version="1.0" encoding="UTF-8" standalone="no"?>
<svg
   xmlns:dc="http://purl.org/dc/elements/1.1/"
   xmlns:cc="http://creativecommons.org/ns#"
   xmlns:rdf="http://www.w3.org/1999/02/22-rdf-syntax-ns#"
   xmlns:svg="http://www.w3.org/2000/svg"
   xmlns="http://www.w3.org/2000/svg"
   xmlns:sodipodi="http://sodipodi.sourceforge.net/DTD/sodipodi-0.dtd"
   xmlns:inkscape="http://www.inkscape.org/namespaces/inkscape"
   width="78.372498"
   height="79.509781"
   viewBox="0 0 20.736055 21.036965"
   version="1.1"
   id="svg8"
   inkscape:version="1.0.1 (3bc2e813f5, 2020-09-07)"
   sodipodi:docname="mysocialcontract.svg">
  <defs
     id="defs2">
    <inkscape:path-effect
       effect="bspline"
       id="path-effect869"
       is_visible="true"
       lpeversion="1"
       weight="33.333333"
       steps="2"
       helper_size="0"
       apply_no_weight="true"
       apply_with_weight="true"
       only_selected="false" />
    <inkscape:path-effect
       effect="bspline"
       id="path-effect865"
       is_visible="true"
       lpeversion="1"
       weight="33.333333"
       steps="2"
       helper_size="0"
       apply_no_weight="true"
       apply_with_weight="true"
       only_selected="false" />
    <inkscape:path-effect
       effect="bspline"
       id="path-effect861"
       is_visible="true"
       lpeversion="1"
       weight="33.333333"
       steps="2"
       helper_size="0"
       apply_no_weight="true"
       apply_with_weight="true"
       only_selected="false" />
    <style
       id="style900">.cls-1{fill:#343434;}.cls-2{fill:#8c8c8c;}.cls-3{fill:#3c3c3b;}.cls-4{fill:#141414;}.cls-5{fill:#393939;}</style>
  </defs>
  <sodipodi:namedview
     id="base"
     pagecolor="#ffffff"
     bordercolor="#666666"
     borderopacity="1.0"
     inkscape:pageopacity="1"
     inkscape:pageshadow="2"
     inkscape:zoom="5.6568542"
     inkscape:cx="12.837483"
     inkscape:cy="33.16502"
     inkscape:document-units="px"
     inkscape:current-layer="layer1"
     inkscape:document-rotation="0"
     showgrid="false"
     units="px"
     inkscape:window-width="1920"
     inkscape:window-height="1017"
     inkscape:window-x="-8"
     inkscape:window-y="-8"
     inkscape:window-maximized="1"
     fit-margin-top="0"
     fit-margin-left="0"
     fit-margin-right="0"
     fit-margin-bottom="0" />
  <metadata
     id="metadata5">
    <rdf:RDF>
      <cc:Work
         rdf:about="">
        <dc:format>image/svg+xml</dc:format>
        <dc:type
           rdf:resource="http://purl.org/dc/dcmitype/StillImage" />
        <dc:title></dc:title>
      </cc:Work>
    </rdf:RDF>
  </metadata>
  <g
     inkscape:label="Layer 1"
     inkscape:groupmode="layer"
     id="layer1"
     transform="translate(-93.333814,-142.80891)">
    <g
       style="fill:#960000;fill-opacity:1"
       id="g857"
       transform="matrix(1.0583333,0,0,1.0583333,115.99894,140.66479)" />
    <path
       style="fill:none;fill-opacity:1;stroke:#000000;stroke-width:1.5875;stroke-linecap:butt;stroke-linejoin:miter;stroke-miterlimit:4;stroke-dasharray:none;stroke-opacity:1"
       d="m 106.68369,162.95634 c -0.2842,-0.23286 -0.69836,-0.47976 -0.90342,-0.82673 -0.19848,-0.39136 -0.27448,-0.7693 -0.51156,-1.3922 -0.22877,-0.6725 -0.46028,-1.29261 -0.55389,-1.68963 -0.15148,-0.38874 -0.28098,-0.39701 -1.9177,-0.40548 -1.63673,-0.008 -4.72248,-0.0254 -6.38539,-0.0253 -1.662911,6e-5 -1.902553,0.0171 -2.059504,0.18546 -0.156952,0.16833 -0.231288,0.48793 -0.223437,0.90143 0.0079,0.41351 0.09768,0.91967 0.279197,1.40706 0.181513,0.48739 0.454246,0.95493 0.754439,1.26667 0.300193,0.31174 0.627595,0.46764 2.358141,0.55722 1.730546,0.0896 4.864214,0.11298 6.972884,0.11688 0.61398,0.001 1.14105,6.6e-4 1.59526,-0.008 1.10573,-0.0221 1.77963,-0.0952 2.22434,-0.3189 0.62738,-0.31563 0.79888,-0.93145 0.83788,-3.42593 0.039,-2.49447 -0.0545,-6.86665 -0.11135,-9.43549 -0.0568,-2.56885 -0.0769,-3.33177 0.007,-3.94223 0.084,-0.61046 0.27231,-1.06803 0.48186,-1.43639 0.20955,-0.36835 0.44092,-0.64858 1.05709,-0.79376 0.61617,-0.14518 1.61445,-0.15497 2.15063,0.52951 0.53618,0.68449 0.60945,2.06294 0.48848,2.8709 -0.12098,0.80796 -0.43618,1.04556 -0.81647,1.20426 -0.38029,0.15869 -0.82578,0.23847 -1.26486,0.22191 -0.43908,-0.0165 -0.87176,-0.12955 -1.22741,-0.22225 -0.35565,-0.0927 -0.63423,-0.16511 -0.91315,-0.23761"
       id="path859"
       sodipodi:nodetypes="ccccccccccccscccccccccccc" />
    <path
       style="fill:none;fill-opacity:1;stroke:#000000;stroke-width:1.5875;stroke-linecap:butt;stroke-linejoin:miter;stroke-miterlimit:4;stroke-dasharray:none;stroke-opacity:1"
       d="m 97.465884,158.75 c 0,-4.29922 0,-8.5987 0.03305,-10.93588 0.03306,-2.33718 0.0992,-2.712 0.26358,-3.03733 0.164381,-0.32532 0.426934,-0.6009 0.725704,-0.78014 0.29877,-0.17924 0.633495,-0.26203 2.789832,-0.3116 2.15634,-0.0496 6.13403,-0.066 10.11154,-0.0824"
       id="path863"
       sodipodi:nodetypes="cccccc" />
    <g
       id="g930"
       transform="matrix(0.01322917,0,0,0.01322917,101.09471,149.1449)">
      <path
         id="polygon906"
         style="fill:#7986cb;fill-opacity:1"
         d="m 152.25,11.56 v 335.31 l 3.4,3.39 155.65,-92 L 155.65,0 Z"
         class="cls-1" />
      <path
         id="polygon908"
         style="fill:#9fa8da;fill-opacity:1"
         d="M 155.65,187.51 V 0 L 0,258.26 155.65,350.27 Z"
         class="cls-2" />
      <path
         id="polygon910"
         style="fill:#7986cb;fill-opacity:1"
         d="m 153.73,382.07 v 119.45 l 1.92,5.59 155.74,-219.33 -155.74,91.96 z"
         class="cls-3" />
      <path
         id="polygon912"
         style="fill:#9fa8da;fill-opacity:1"
         d="M 0,287.78 155.65,507.11 V 379.73 Z"
         class="cls-2" />
      <path
         id="polygon914"
         style="fill:#5c6bc0;fill-opacity:1"
         d="m 155.65,187.51 v 162.75 l 155.65,-92 z"
         class="cls-4" />
      <path
         id="polygon916"
         style="fill:#7986cb;fill-opacity:1"
         d="M 155.65,187.51 0,258.26 l 155.65,92 z"
         class="cls-5" />
    </g>
  </g>
</svg>
